<svg xmlns="http://www.w3.org/2000/svg" width="26px" height="26px" viewBox="0 0 36 36">
  <path fill="#4f43dd" d="M11.9886 34.541a1.4629 1.4629 0 0 0 .9817 1.3775c.1898.0662.3913.0925.5918.0772 7.6203-.5455 14.8175-5.9384 17.1153-14.3616.1207-.4845.4842-.7274.9685-.7274a.9444.9444 0 0 1 .906.9703c0 1.8782-2.4142 6.7866-5.8665 9.6351a1.528 1.528 0 0 0-.5439 1.2118 1.421 1.421 0 0 0 .9045 1.2972c.1742.0679.36.1006.5469.0965.3024 0 .7867-.1818 1.3917-.7274C31.3988 31.2081 36 25.0878 36 18.3609 36 8.4985 28.3753 0 17.7344 0 8.2394 0 .0142 7.757.0142 16.7257c0 5.9384 4.7176 10.4221 10.9462 10.4221 4.7787 0 9.1939-3.3926 10.4038-8.0596.1207-.4844.4829-.7273.9671-.7273a.9462.9462 0 0 1 .9075.9703c0 2.121-3.992 9.5185-12.0966 9.5185-1.9356 0-4.354-.5455-6.0483-1.5158a1.8292 1.8292 0 0 0-.7257-.1819 1.399 1.399 0 0 0-1.4513 1.4548 1.4518 1.4518 0 0 0 .7257 1.2118c2.238 1.2786 4.8994 1.9393 7.6203 1.9393 6.774 0 12.943-4.6059 14.7579-11.3925.1207-.4844.4842-.7274.9671-.7274a.946.946 0 0 1 .9074.9704c0 2.7873-4.959 11.7561-14.515 12.4835a1.5044 1.5044 0 0 0-1.3917 1.4491z"/>
  <path fill="#fff" d="M21.4581 11.3328a6.8919 6.8919 0 0 1 3.6923 1.0399 11.4542 11.4542 0 0 0 .1846-1.8568c0-2.8769-2.1927-5.454-4.8625-5.454-2.0762 0-3.3742 1.7204-3.3742 3.8458a4.7847 4.7847 0 0 0 1.1361 3.1368 7.3093 7.3093 0 0 1 3.2237-.7117z"/>
  <path fill="#352d8e" d="M27.7139 21.7549c.3706-1.2672.5339-2.1466.5339-2.7178a.9613.9613 0 0 0-.9571-.9177 1.031 1.031 0 0 0-.9856.7998c-.1008.4163-.3167 1.5443-.5297 2.2603.088-.268.1685-.5403.2414-.8169.1207-.4858.4843-.7274.9671-.7274a.9449.9449 0 0 1 .9075.969 4.4695 4.4695 0 0 1-.1861 1.1521zM32.8546 20.4308a.9635.9635 0 0 0-.295-.6494.9622.9622 0 0 0-.6608-.2683 1.0309 1.0309 0 0 0-.9841.7998c-.1023.4262-.3224 1.5713-.5382 2.2859h.0099c.1051-.3183.2031-.6407.284-.9689.1207-.4859.4843-.7274.9686-.7274a.9425.9425 0 0 1 .652.2982.9437.9437 0 0 1 .254.6707 3.9475 3.9475 0 0 1-.1236.8936c.3011-1.057.4332-1.8213.4332-2.3342z"/>
  <path fill="#163b36" d="M21.4578 11.3328a7.1805 7.1805 0 0 1 1.9186.2571 2.4152 2.4152 0 0 0 .4643-1.5491 2.4153 2.4153 0 0 0-.6168-1.4949 2.4138 2.4138 0 0 0-3.0101-.4707l.9941 1.6366-1.8618-.8055a2.4324 2.4324 0 0 0-.3634 1.3582c.0151.4787.1712.9422.4486 1.3325a7.6659 7.6659 0 0 1 2.0265-.2642z"/>
  <path fill="#352d8e" d="M7.115 21.8657c.7842 0 1.42-.6361 1.42-1.4207 0-.7846-.6358-1.4207-1.42-1.4207-.7844 0-1.4202.6361-1.4202 1.4207 0 .7846.6358 1.4207 1.4201 1.4207zM7.115 16.1829c.7842 0 1.42-.636 1.42-1.4207 0-.7846-.6358-1.4206-1.42-1.4206-.7844 0-1.4202.636-1.4202 1.4206 0 .7847.6358 1.4207 1.4201 1.4207zM4.2746 19.0243c.7843 0 1.4201-.636 1.4201-1.4206 0-.7847-.6358-1.4207-1.42-1.4207-.7844 0-1.4202.636-1.4202 1.4207 0 .7846.6358 1.4206 1.4201 1.4206z"/>
  <path fill="#352d8e" d="M10.6651 27.1449h.284c4.7787 0 9.1939-3.3925 10.4038-8.0595.1207-.4844.4828-.7274.9671-.7274a.9465.9465 0 0 1 .9075.9704 4.0719 4.0719 0 0 1-.3309 1.4391 1.1658 1.1658 0 0 0 .0894-.1662 6.5085 6.5085 0 0 0 .5454-2.6055c0-1.3937-.9686-2.3029-2.3589-2.3029-2.4241 0-2.9098 2.1168-3.9323 4.3799-1.0608 2.3498-3.0092 4.8914-7.9228 4.8914-5.1053 0-10.3512-3.5758-9.0717-10.8469a6.4595 6.4595 0 0 0 .0383-.2472A14.6855 14.6855 0 0 0 0 16.7228c.0142 5.8532 4.5856 10.2858 10.6651 10.4221Z"/>
</svg>