<svg xmlns="http://www.w3.org/2000/svg" width="22px" height="26px" viewBox="0 0 473 541">
  <path fill="#696969" d="M21.125 42.75h431.04c11.667 0 21.125 9.458 21.125 21.125S463.832 85 452.165 85H21.125C9.458 85 0 75.542 0 63.875S9.458 42.75 21.125 42.75z"/>
  <path fill="#009fe3" d="M24.882 0h86.667v20H24.882z"/>
  <path fill="#c7d302" d="M138.216 0h86.666v20h-86.666z"/>
  <path fill="#f07e16" d="M250.049 0h86.667v20h-86.667Z"/>
  <path fill="#df2815" d="M361.41 0h86.667v20H361.41z"/>
  <g>
    <path fill="#df2815" d="M361.41 107h86.667v146.5H361.41z"/>
    <path fill="#f07e16" d="M250.049 107h86.828v238h-86.828Z"/>
    <path fill="#c7d302" d="M138.216 107h86.661v356.5h-86.661z"/>
    <path fill="#009fe3" d="M24.882 107h86.667v434.5H24.882z"/>
  </g>
</svg>