<svg xmlns="http://www.w3.org/2000/svg" width="34px" height="26px" viewBox="0 0 100 75">
	<g stroke="#fff" stroke-width="2" transform="matrix(.97515 0 0 .99031 -5.7154 -4.7543)">
		<rect width="100.9214" height="74.1071" x="6.6807" y="5.6078" stroke-width="1.6266" rx="4.0965"/>
		<path fill="#fff" d="M28.2415 21.7736c-.8558-.8558-1.8886-1.2837-3.0982-1.2837-1.2096 0-2.2465.432-3.1105 1.296-.8517.8517-1.2837 1.8885-1.2837 3.0982 0 1.2096.432 2.2465 1.2837 3.0982L35.4746 41.424 22.0451 54.8536c-.864.864-1.296 1.9009-1.3084 3.1105.0124 1.2097.4444 2.2465 1.296 3.0982.8641.8517 1.901 1.2837 3.0983 1.296 1.222 0 2.2588-.432 3.1228-1.296l14.9354-14.9477c3.1352-3.1229 3.1352-6.258 0-9.3933zm58.5442 33.1047c-.864-.864-1.9132-1.296-3.1352-1.296v-.0062h-28.834v.0062c-1.2219 0-2.2587.432-3.1228 1.296-.864.864-1.296 1.9009-1.296 3.1229s.432 2.2711 1.296 3.1352c.864.864 1.9009 1.296 3.1229 1.296v-.0062h28.834v.0062c1.222 0 2.2711-.432 3.1351-1.296.864-.864 1.296-1.9133 1.296-3.1352 0-1.222-.432-2.2589-1.296-3.1229z"/>
	</g>
</svg>